<?xml version="1.0" encoding="utf-8"?>
<!-- Generator: Adobe Illustrator 19.0.0, SVG Export Plug-In . SVG Version: 6.00 Build 0)  -->
<svg version="1.1" id="Layer_1" xmlns="http://www.w3.org/2000/svg" xmlns:xlink="http://www.w3.org/1999/xlink" x="0px" y="0px"
	 viewBox="0 0 64 64" style="enable-background:new 0 0 64 64;" xml:space="preserve">
<style type="text/css">
	.st0{fill-rule:evenodd;clip-rule:evenodd;fill:#FFFFFF;}
</style>
<path id="XMLID_324_" class="st0" d="M32,0C14.3,0,0,14.7,0,32.8c0,14.5,9.2,26.8,21.9,31.1c1.6,0.3,2.2-0.7,2.2-1.6
	c0-0.8,0-2.8,0-5.6c-8.9,2-10.8-4.4-10.8-4.4c-1.5-3.8-3.6-4.8-3.6-4.8c-2.9-2,0.2-2,0.2-2c3.2,0.2,4.9,3.4,4.9,3.4
	c2.9,5,7.5,3.6,9.3,2.7c0.3-2.1,1.1-3.6,2-4.4c-7.1-0.8-14.6-3.6-14.6-16.2c0-3.6,1.2-6.5,3.3-8.8c-0.3-0.8-1.4-4.2,0.3-8.7
	c0,0,2.7-0.9,8.8,3.4c2.6-0.7,5.3-1.1,8-1.1c2.7,0,5.5,0.4,8,1.1c6.1-4.2,8.8-3.4,8.8-3.4c1.7,4.5,0.6,7.9,0.3,8.7
	c2.1,2.3,3.3,5.2,3.3,8.8c0,12.6-7.5,15.4-14.6,16.2c1.1,1,2.2,3,2.2,6.1c0,4.4,0,7.9,0,9c0,0.9,0.6,1.9,2.2,1.6
	C54.8,59.6,64,47.3,64,32.8C64,14.7,49.7,0,32,0z"/>
</svg>
