<?xml version="1.0" encoding="utf-8"?>
<!-- Generator: Adobe Illustrator 19.0.0, SVG Export Plug-In . SVG Version: 6.00 Build 0)  -->
<svg version="1.1" id="Layer_1" xmlns="http://www.w3.org/2000/svg" xmlns:xlink="http://www.w3.org/1999/xlink" x="0px" y="0px"
	 viewBox="0 0 64 64" style="enable-background:new 0 0 64 64;" xml:space="preserve">
<style type="text/css">
	.st0{fill:#006699;}
	.st1{fill:#FFFFFF;}
</style>
<g id="XMLID_330_">
	<path id="XMLID_335_" class="st0" d="M0,4.6C0,2.1,2.1,0,4.7,0h54.5C61.9,0,64,2.1,64,4.6v54.8c0,2.5-2.1,4.6-4.7,4.6H4.7
		C2.1,64,0,61.9,0,59.4V4.6L0,4.6z"/>
	<path id="XMLID_331_" class="st1" d="M19.4,53.6V24.7H9.9v28.8H19.4L19.4,53.6z M14.7,20.8c3.3,0,5.4-2.2,5.4-5
		c-0.1-2.8-2.1-5-5.4-5c-3.3,0-5.4,2.2-5.4,5C9.3,18.6,11.4,20.8,14.7,20.8L14.7,20.8L14.7,20.8z M24.7,53.6h9.6V37.5
		c0-0.9,0.1-1.7,0.3-2.3c0.7-1.7,2.3-3.5,4.9-3.5c3.5,0,4.9,2.6,4.9,6.5v15.4H54V37c0-8.8-4.7-13-11-13c-5.2,0-7.4,2.9-8.7,4.9h0.1
		v-4.2h-9.6C24.9,27.5,24.7,53.6,24.7,53.6L24.7,53.6z"/>
</g>
</svg>
